<svg width="225" height="219" viewBox="0 0 225 219" fill="none" xmlns="http://www.w3.org/2000/svg">
<path d="M109.919 0.267838C108.56 0.554123 106.556 1.77081 105.339 2.84436C98.8976 8.9994 98.9691 17.6594 105.41 24.5302C106.699 25.89 108.202 27.6792 108.774 28.4665C110.993 31.6872 109.275 41.4207 105.84 44.6414C104.909 45.5002 101.403 47.0032 97.9671 48.0052C94.5318 48.9356 88.5199 51.2974 84.6551 53.2298C80.7903 55.2338 77.2118 56.8083 76.7823 56.8083C74.4205 56.8083 70.842 54.0887 67.9792 50.0092C66.1899 47.5758 62.9693 43.9257 60.679 41.8502C51.518 33.4049 44.6473 32.7607 39.3511 39.8462C37.3471 42.5659 37.4903 47.6474 39.6374 52.0847C41.7129 56.4505 49.4425 64.6811 54.8103 68.3312C60.679 72.3391 61.18 74.2715 57.9594 81.2138C56.5995 84.1482 54.9534 88.4424 54.3093 90.8042C52.6632 96.7446 51.4465 97.6034 44.7188 97.6034C38.6354 97.6034 34.3412 99.1779 29.3312 103.257C25.7527 106.12 24.4645 106.049 21.8879 102.971C19.2398 99.6789 15.0888 97.6034 11.2955 97.6034C7.71702 97.6034 3.13653 100.681 1.2757 104.188C-2.66067 111.703 2.99338 120.649 11.6534 120.649C15.876 120.577 18.3094 119.432 21.6732 115.925C23.0331 114.494 24.7507 113.349 25.4664 113.349C26.1822 113.349 28.6871 114.78 31.0489 116.498C36.0588 120.22 40.4962 121.436 46.7944 120.721C52.0906 120.22 52.6632 120.649 54.7387 126.804C55.5975 129.452 57.3868 133.746 58.6751 136.394C62.6114 144.267 62.0389 146.271 54.1661 151.997C47.7248 156.72 42.357 162.374 39.9236 167.098C37.6334 171.607 37.5618 177.476 39.7089 180.195C41.5698 182.557 44.6473 184.203 47.2954 184.203C52.6632 184.203 63.3271 176.044 69.0527 167.671C72.2734 162.875 74.9931 160.585 77.2833 160.585C78.1422 160.585 82.1501 162.16 86.158 164.092C90.0944 166.096 95.7485 168.172 98.6828 168.816C104.838 170.176 105.983 171.249 108.345 177.476C110.707 183.989 109.848 191.79 106.556 193.007C104.552 193.794 101.259 199.949 100.83 203.885C100.401 206.82 100.615 208.323 101.76 210.756C105.697 219.631 114.5 221.492 120.726 214.764C126.381 208.68 125.951 201.523 119.438 194.295C115.001 189.285 114.214 186.637 115.43 181.054C116.575 175.973 119.438 170.104 121.013 169.603C121.728 169.388 124.448 168.744 127.096 168.172C129.744 167.528 134.826 165.595 138.404 163.806C141.911 162.017 145.561 160.585 146.42 160.585C149.14 160.585 151.716 162.804 156.154 168.816C162.667 177.762 171.112 184.203 176.408 184.203C179.629 184.203 182.921 182.414 184.853 179.551C186.213 177.476 186.5 176.402 186.213 173.325C185.712 166.955 180.058 159.726 168.464 150.422C165.744 148.275 164.241 146.414 163.597 144.554C162.738 141.977 162.881 141.476 165.887 134.892C167.605 131.098 169.394 126.733 169.895 125.158C171.327 120.577 171.828 120.291 176.694 120.792C182.921 121.365 188.36 119.933 193.012 116.283C195.16 114.709 197.45 113.349 198.094 113.349C198.81 113.349 201.028 114.78 202.961 116.57C208.901 121.937 214.698 122.367 219.994 117.929C225.648 113.134 225.792 106.192 220.209 101.11C217.346 98.4622 215.486 97.6034 212.336 97.6034C209.33 97.6034 204.535 100.252 201.458 103.615C199.167 106.049 197.521 105.977 194.372 103.257C189.72 99.1779 185.068 97.5318 178.77 97.7465C172.329 97.8897 171.47 97.2456 169.609 90.8758C168.965 88.7287 167.462 84.8639 166.317 82.2158C165.1 79.5677 164.17 76.7765 164.17 76.0608C164.17 73.2695 166.46 70.3351 171.398 66.7566C176.694 62.8203 182.635 56.1642 184.925 51.369C185.784 49.7229 186.356 47.0032 186.356 45.0708C186.356 41.9217 186.07 41.2776 183.207 38.4864C180.416 35.6951 179.772 35.3373 176.766 35.3373C174.834 35.3373 172.257 35.9098 170.611 36.7687C166.746 38.7726 159.661 45.5002 155.796 50.868C150.786 57.8819 148.854 58.3113 141.41 54.0887C138.762 52.6573 132.75 50.1523 128.027 48.5778C119.868 45.8581 119.438 45.5718 117.864 42.8521C115.86 39.2736 114.571 33.2617 115.216 30.6136C115.502 29.5401 117.434 26.8204 119.51 24.5302C121.943 21.8821 123.589 19.3055 124.09 17.3731C126.667 7.85429 118.651 -1.73613 109.919 0.267838ZM116.074 5.27776C118.579 6.85229 120.512 10.4308 120.512 13.6515C120.512 16.8721 117.721 21.7389 115.144 22.9556C111.852 24.5302 109.418 23.7429 107.128 20.1644C104.337 16.0133 104.265 9.85826 106.913 7.06702C110.134 3.63164 112.567 3.13065 116.074 5.27776ZM53.5936 41.4207C60.3927 45.2855 68.2655 56.0927 68.2655 61.6036C68.2655 66.1841 63.9713 68.1165 58.7466 65.8262C54.9534 64.1085 48.4405 58.4545 45.7208 54.5181C41.0688 47.5042 40.7109 41.7786 44.862 39.9893C47.5101 38.8442 49.6572 39.2021 53.5936 41.4207ZM179.414 39.703C181.346 40.5619 182.778 43.0669 182.778 45.6434C182.778 48.9356 179.128 54.5897 173.688 59.6712C167.891 65.0389 164.742 66.8282 160.877 66.8282C153.291 66.8282 155.223 55.7348 164.527 46.4307C168.679 42.208 173.975 38.9158 176.48 38.9158C177.124 38.9158 178.484 39.2736 179.414 39.703ZM125.164 56.8083C133.323 58.8839 142.699 64.3232 147.995 69.9773C156.512 79.1383 161.522 90.2317 162.81 102.9C163.597 110.558 162.81 117.428 160.09 125.516C157.728 132.744 155.152 136.967 149.211 143.838C143.271 150.709 140.766 152.713 134.253 155.933C126.667 159.655 121.299 160.872 111.923 160.872C102.476 160.943 96.5357 159.44 87.9473 155.003C81.005 151.424 71.7008 142.049 68.0508 134.963C63.1124 125.587 61.681 120.434 61.3232 110.844C60.679 93.9533 65.5458 81.0707 76.7108 70.1204C84.5835 62.4624 94.6033 57.1662 103.693 55.8779C109.991 55.0191 119.868 55.4485 125.164 56.8083ZM17.8084 104.045C22.6752 108.625 20.385 115.067 13.2995 116.426C5.64148 117.929 0.989417 108.625 6.92975 103.615C8.86215 102.041 9.64942 101.826 12.5838 102.041C14.874 102.327 16.6633 102.971 17.8084 104.045ZM49.6572 104.474C52.7347 107.552 53.0926 110.414 50.8023 113.206C47.367 117.214 41.355 117.858 35.2 114.709C29.9754 112.061 29.4028 108.625 33.4108 104.904C35.7726 102.685 38.4922 101.898 43.4306 102.184C46.9375 102.327 47.9395 102.685 49.6572 104.474ZM187.43 102.9C190.794 104.331 193.513 107.194 193.513 109.341C193.513 113.707 184.138 117.929 177.983 116.283C173.044 114.923 170.611 110.2 172.83 106.12C174.834 102.255 182.134 100.681 187.43 102.9ZM217.919 103.973C219.565 105.691 219.994 106.693 219.994 109.269C219.994 116.999 210.619 119.504 205.323 113.206C202.46 109.842 203.319 106.049 207.541 103.257C210.833 101.11 215.342 101.397 217.919 103.973ZM66.6909 153.142C70.2694 155.575 67.9792 163.806 61.8957 170.748C53.522 180.267 43.7884 182.772 42.0708 175.83C40.4962 169.603 51.6612 155.862 60.5359 153.07C64.5438 151.782 64.8301 151.782 66.6909 153.142ZM166.388 154.287C171.112 156.72 178.341 164.021 180.631 168.458C183.637 174.398 181.847 179.909 176.838 179.909C171.971 179.909 162.452 172.036 157.871 164.235C155.51 160.227 155.223 154.573 157.299 152.999C159.446 151.496 161.808 151.782 166.388 154.287ZM115.43 196.013C117.721 197.158 120.512 202.239 120.512 205.174C120.512 206.247 120.011 208.394 119.367 209.969C116.575 216.839 108.273 216.267 105.554 209.038C103.836 204.529 105.053 200.235 109.061 196.8C111.637 194.653 112.639 194.51 115.43 196.013Z" fill="#F8F1FF"/>
<path d="M82.9733 85.643C81.7683 86.3333 81.7683 86.8264 82.7724 87.8125C83.6761 88.7001 84.2786 88.7001 85.1823 87.8125C86.7888 86.2347 84.9814 84.4596 82.9733 85.643Z" fill="#F8F1FF"/>
<path d="M108.512 102.752C104.763 107.121 105.651 112.782 110.584 115.661C113.445 117.349 113.741 117.349 116.898 115.661C119.858 113.973 120.154 113.477 120.154 109.207C120.154 105.93 119.562 104.043 118.378 102.951C116.109 100.865 110.288 100.865 108.512 102.752Z" fill="#F8F1FF"/>
<path d="M143.333 124.393C143.534 126.345 144.24 127.126 145.651 127.126C147.062 127.126 147.767 126.345 147.969 124.393C148.271 122.149 147.969 121.758 145.651 121.758C143.333 121.758 143.031 122.149 143.333 124.393Z" fill="#F8F1FF"/>
<path d="M87.4105 133.829C87.4105 134.5 88.0259 135.648 88.8463 136.223C89.9744 137.085 90.3846 136.989 90.8974 135.744C91.2051 134.883 91.3076 133.829 90.8974 133.351C90.077 132.01 87.4105 132.298 87.4105 133.829Z" fill="#F8F1FF"/>
</svg>
