
<svg xmlns="http://www.w3.org/2000/svg" version="1.1" xmlns:xlink="http://www.w3.org/1999/xlink" preserveAspectRatio="none" x="0px" y="0px" width="93px" height="110px" viewBox="0 0 93 110">
<defs>
<g id="Layer0_0_MEMBER_0_FILL">
<path fill="#FFDC8B" stroke="none" d="
M 64.7 48.35
Q 64.7 40.9 59.45 35.6 54.2 30.35 46.75 30.35 46 30.35 44.7 30.45 38.25 31.15 33.7 36 29.15 40.8 28.8 47.3 28.6 51.2 30 54.85 31.4 58.5 34.2 61.25 37.5 64.45 39.3 68.65 41.1 72.85 41.1 77.3
L 41.1 80.15
Q 41.1 80.7 41.55 81.15 41.95 81.55 42.55 81.55
L 50.95 81.55
Q 51.55 81.55 51.95 81.15 52.35 80.75 52.35 80.15
L 52.4 80.15 52.4 77.3
Q 52.4 72.75 54.15 68.6 55.95 64.45 59.15 61.35 64.7 56.05 64.7 48.35 Z"/>
</g>
</defs>

<g transform="matrix( 1, 0, 0, 1, 0,0) ">
<use xlink:href="#Layer0_0_MEMBER_0_FILL"/>
</g>
</svg>
