<?xml version="1.0" standalone="no"?>
<!DOCTYPE svg PUBLIC "-//W3C//DTD SVG 20010904//EN"
 "http://www.w3.org/TR/2001/REC-SVG-20010904/DTD/svg10.dtd">
<svg version="1.0" xmlns="http://www.w3.org/2000/svg"
 width="317.000000pt" height="309.000000pt" viewBox="0 0 317.000000 309.000000"
 preserveAspectRatio="xMidYMid meet">

<g transform="translate(0.000000,309.000000) scale(0.100000,-0.100000)"
fill="#000000" stroke="none">
<path d="M1552 3070 c-19 -4 -47 -21 -64 -36 -90 -86 -89 -207 1 -303 18 -19
39 -44 47 -55 31 -45 7 -181 -41 -226 -13 -12 -62 -33 -110 -47 -48 -13 -132
-46 -186 -73 -54 -28 -104 -50 -110 -50 -33 0 -83 38 -123 95 -25 34 -70 85
-102 114 -128 118 -224 127 -298 28 -28 -38 -26 -109 4 -171 29 -61 137 -176
212 -227 82 -56 89 -83 44 -180 -19 -41 -42 -101 -51 -134 -23 -83 -40 -95
-134 -95 -85 0 -145 -22 -215 -79 -50 -40 -68 -39 -104 4 -37 46 -95 75 -148
75 -50 0 -114 -43 -140 -92 -55 -105 24 -230 145 -230 59 1 93 17 140 66 19
20 43 36 53 36 10 0 45 -20 78 -44 70 -52 132 -69 220 -59 74 7 82 1 111 -85
12 -37 37 -97 55 -134 55 -110 47 -138 -63 -218 -90 -66 -165 -145 -199 -211
-32 -63 -33 -145 -3 -183 26 -33 69 -56 106 -56 75 0 224 114 304 231 45 67
83 99 115 99 12 0 68 -22 124 -49 55 -28 134 -57 175 -66 86 -19 102 -34 135
-121 33 -91 21 -200 -25 -217 -28 -11 -74 -97 -80 -152 -6 -41 -3 -62 13 -96
55 -124 178 -150 265 -56 79 85 73 185 -18 286 -62 70 -73 107 -56 185 16 71
56 153 78 160 10 3 48 12 85 20 37 9 108 36 158 61 49 25 100 45 112 45 38 0
74 -31 136 -115 91 -125 209 -215 283 -215 45 0 91 25 118 65 19 29 23 44 19
87 -7 89 -86 190 -248 320 -38 30 -59 56 -68 82 -12 36 -10 43 32 135 24 53
49 114 56 136 20 64 27 68 95 61 87 -8 163 12 228 63 30 22 62 41 71 41 10 0
41 -20 68 -45 83 -75 164 -81 238 -19 79 67 81 164 3 235 -40 37 -66 49 -110
49 -42 0 -109 -37 -152 -84 -32 -34 -55 -33 -99 5 -65 57 -130 80 -218 77 -90
-2 -102 7 -128 96 -9 30 -30 84 -46 121 -17 37 -30 76 -30 86 0 39 32 80 101
130 74 55 157 148 189 215 12 23 20 61 20 88 0 44 -4 53 -44 92 -39 39 -48 44
-90 44 -27 0 -63 -8 -86 -20 -54 -28 -153 -122 -207 -197 -70 -98 -97 -104
-201 -45 -37 20 -121 55 -187 77 -114 38 -120 42 -142 80 -28 50 -46 134 -37
171 4 15 31 53 60 85 34 37 57 73 64 100 36 133 -76 267 -198 239z m86 -70
c35 -22 62 -72 62 -117 0 -45 -39 -113 -75 -130 -46 -22 -80 -11 -112 39 -39
58 -40 144 -3 183 45 48 79 55 128 25z m-873 -505 c95 -54 205 -205 205 -282
0 -64 -60 -91 -133 -59 -53 24 -144 103 -182 158 -65 98 -70 178 -12 203 37
16 67 11 122 -20z m1758 24 c27 -12 47 -47 47 -83 0 -46 -51 -125 -127 -196
-81 -75 -125 -100 -179 -100 -106 0 -79 155 51 285 58 59 132 105 167 105 9 0
28 -5 41 -11z m-758 -239 c114 -29 245 -105 319 -184 119 -128 189 -283 207
-460 11 -107 0 -203 -38 -316 -33 -101 -69 -160 -152 -256 -83 -96 -118 -124
-209 -169 -106 -52 -181 -69 -312 -69 -132 -1 -215 20 -335 82 -97 50 -227
181 -278 280 -69 131 -89 203 -94 337 -9 236 59 416 215 569 110 107 250 181
377 199 88 12 226 6 300 -13z m-1500 -660 c68 -64 36 -154 -63 -173 -107 -21
-172 109 -89 179 27 22 38 25 79 22 32 -4 57 -13 73 -28z m445 -6 c43 -43 48
-83 16 -122 -48 -56 -132 -65 -218 -21 -73 37 -81 85 -25 137 33 31 71 42 140
38 49 -2 63 -7 87 -32z m1925 22 c47 -20 85 -60 85 -90 0 -61 -131 -120 -217
-97 -69 19 -103 85 -72 142 28 54 130 76 204 45z m426 -15 c23 -24 29 -38 29
-74 0 -108 -131 -143 -205 -55 -40 47 -28 100 31 139 46 30 109 26 145 -10z
m-2113 -687 c50 -34 18 -149 -67 -246 -117 -133 -253 -168 -277 -71 -22 87
134 279 258 318 56 18 60 18 86 -1z m1393 -16 c66 -34 167 -136 199 -198 42
-83 17 -160 -53 -160 -68 0 -201 110 -265 219 -33 56 -37 135 -8 157 30 21 63
17 127 -18z m-712 -583 c32 -16 71 -87 71 -128 0 -15 -7 -45 -16 -67 -39 -96
-155 -88 -193 13 -24 63 -7 123 49 171 36 30 50 32 89 11z"/>
<path d="M1210 1700 c-12 -7 -12 -12 -2 -22 9 -9 15 -9 24 0 16 16 -2 34 -22
22z"/>
<path d="M1542 1615 c-38 -44 -29 -101 21 -130 29 -17 32 -17 64 0 30 17 33
22 33 65 0 33 -6 52 -18 63 -23 21 -82 21 -100 2z"/>
<path d="M2082 1403 c2 -20 9 -28 23 -28 14 0 21 8 23 28 3 23 0 27 -23 27
-23 0 -26 -4 -23 -27z"/>
<path d="M1430 1186 c0 -7 6 -19 14 -25 11 -9 15 -8 20 5 3 9 4 20 0 25 -8 14
-34 11 -34 -5z"/>
</g>
</svg>
