<svg width="570" height="229" viewBox="0 0 570 229" fill="none" xmlns="http://www.w3.org/2000/svg">
<g filter="url(#filter0_dd_4_19)">
<path d="M236.485 143.4L221.749 177H216.997L202.213 143.4H207.397L219.493 171L231.685 143.4H236.485ZM242.545 151.56H247.153V177H242.545V151.56ZM244.849 146.664C243.953 146.664 243.201 146.376 242.593 145.8C242.017 145.224 241.729 144.52 241.729 143.688C241.729 142.856 242.017 142.152 242.593 141.576C243.201 140.968 243.953 140.664 244.849 140.664C245.745 140.664 246.481 140.952 247.057 141.528C247.665 142.072 247.969 142.76 247.969 143.592C247.969 144.456 247.665 145.192 247.057 145.8C246.481 146.376 245.745 146.664 244.849 146.664ZM265.647 177.288C263.567 177.288 261.567 177.016 259.647 176.472C257.727 175.896 256.223 175.176 255.135 174.312L257.055 170.664C258.175 171.464 259.535 172.104 261.135 172.584C262.735 173.064 264.351 173.304 265.983 173.304C270.015 173.304 272.031 172.152 272.031 169.848C272.031 169.08 271.759 168.472 271.215 168.024C270.671 167.576 269.983 167.256 269.151 167.064C268.351 166.84 267.199 166.6 265.695 166.344C263.647 166.024 261.967 165.656 260.655 165.24C259.375 164.824 258.271 164.12 257.343 163.128C256.415 162.136 255.951 160.744 255.951 158.952C255.951 156.648 256.911 154.808 258.831 153.432C260.751 152.024 263.327 151.32 266.559 151.32C268.255 151.32 269.951 151.528 271.647 151.944C273.343 152.36 274.735 152.92 275.823 153.624L273.855 157.272C271.775 155.928 269.327 155.256 266.511 155.256C264.559 155.256 263.071 155.576 262.047 156.216C261.023 156.856 260.511 157.704 260.511 158.76C260.511 159.592 260.799 160.248 261.375 160.728C261.951 161.208 262.655 161.56 263.487 161.784C264.351 162.008 265.551 162.264 267.087 162.552C269.135 162.904 270.783 163.288 272.031 163.704C273.311 164.088 274.399 164.76 275.295 165.72C276.191 166.68 276.639 168.024 276.639 169.752C276.639 172.056 275.647 173.896 273.663 175.272C271.711 176.616 269.039 177.288 265.647 177.288ZM284.798 151.56H289.406V177H284.798V151.56ZM287.102 146.664C286.206 146.664 285.454 146.376 284.846 145.8C284.27 145.224 283.982 144.52 283.982 143.688C283.982 142.856 284.27 142.152 284.846 141.576C285.454 140.968 286.206 140.664 287.102 140.664C287.998 140.664 288.734 140.952 289.31 141.528C289.918 142.072 290.222 142.76 290.222 143.592C290.222 144.456 289.918 145.192 289.31 145.8C288.734 146.376 287.998 146.664 287.102 146.664ZM311.5 177.288C308.972 177.288 306.7 176.728 304.684 175.608C302.668 174.488 301.084 172.952 299.932 171C298.812 169.016 298.252 166.776 298.252 164.28C298.252 161.784 298.812 159.56 299.932 157.608C301.084 155.624 302.668 154.088 304.684 153C306.7 151.88 308.972 151.32 311.5 151.32C314.028 151.32 316.284 151.88 318.268 153C320.284 154.088 321.852 155.624 322.972 157.608C324.124 159.56 324.7 161.784 324.7 164.28C324.7 166.776 324.124 169.016 322.972 171C321.852 172.952 320.284 174.488 318.268 175.608C316.284 176.728 314.028 177.288 311.5 177.288ZM311.5 173.256C313.132 173.256 314.588 172.888 315.868 172.152C317.18 171.384 318.204 170.328 318.94 168.984C319.676 167.608 320.044 166.04 320.044 164.28C320.044 162.52 319.676 160.968 318.94 159.624C318.204 158.248 317.18 157.192 315.868 156.456C314.588 155.72 313.132 155.352 311.5 155.352C309.868 155.352 308.396 155.72 307.084 156.456C305.804 157.192 304.78 158.248 304.012 159.624C303.276 160.968 302.908 162.52 302.908 164.28C302.908 166.04 303.276 167.608 304.012 168.984C304.78 170.328 305.804 171.384 307.084 172.152C308.396 172.888 309.868 173.256 311.5 173.256ZM347.057 151.32C350.289 151.32 352.849 152.264 354.737 154.152C356.657 156.008 357.617 158.744 357.617 162.36V177H353.009V162.888C353.009 160.424 352.417 158.568 351.233 157.32C350.049 156.072 348.353 155.448 346.145 155.448C343.649 155.448 341.681 156.184 340.241 157.656C338.801 159.096 338.081 161.176 338.081 163.896V177H333.473V151.56H337.889V155.4C338.817 154.088 340.065 153.08 341.633 152.376C343.233 151.672 345.041 151.32 347.057 151.32ZM398.113 143.4V177H393.313V162.024H374.017V177H369.217V143.4H374.017V157.848H393.313V143.4H398.113ZM421.37 173.256C424.41 173.256 426.858 172.232 428.714 170.184L431.21 173.16C430.09 174.504 428.666 175.528 426.938 176.232C425.242 176.936 423.338 177.288 421.226 177.288C418.538 177.288 416.154 176.744 414.074 175.656C411.994 174.536 410.378 172.984 409.226 171C408.106 169.016 407.546 166.776 407.546 164.28C407.546 161.816 408.09 159.592 409.178 157.608C410.298 155.624 411.818 154.088 413.738 153C415.69 151.88 417.882 151.32 420.314 151.32C422.618 151.32 424.714 151.848 426.602 152.904C428.49 153.928 429.994 155.384 431.114 157.272C432.234 159.16 432.81 161.336 432.842 163.8L412.634 167.736C413.274 169.496 414.346 170.856 415.85 171.816C417.386 172.776 419.226 173.256 421.37 173.256ZM420.314 155.208C418.714 155.208 417.274 155.576 415.994 156.312C414.746 157.048 413.77 158.088 413.066 159.432C412.362 160.744 412.01 162.28 412.01 164.04V164.52L428.282 161.448C427.866 159.592 426.938 158.088 425.498 156.936C424.058 155.784 422.33 155.208 420.314 155.208ZM449.416 177.288C446.952 177.288 445.048 176.616 443.704 175.272C442.36 173.896 441.688 171.976 441.688 169.512V141.384H446.296V169.128C446.296 170.504 446.616 171.56 447.256 172.296C447.928 173.032 448.92 173.4 450.232 173.4C451.032 173.4 451.784 173.24 452.488 172.92L452.728 176.712C451.672 177.096 450.568 177.288 449.416 177.288ZM472.998 151.32C475.462 151.32 477.67 151.864 479.622 152.952C481.574 154.04 483.094 155.56 484.182 157.512C485.302 159.464 485.862 161.72 485.862 164.28C485.862 166.84 485.302 169.112 484.182 171.096C483.094 173.048 481.574 174.568 479.622 175.656C477.67 176.744 475.462 177.288 472.998 177.288C471.174 177.288 469.494 176.936 467.958 176.232C466.454 175.528 465.174 174.504 464.118 173.16V186.312H459.51V151.56H463.926V155.592C464.95 154.184 466.246 153.128 467.814 152.424C469.382 151.688 471.11 151.32 472.998 151.32ZM472.614 173.256C474.246 173.256 475.702 172.888 476.982 172.152C478.294 171.384 479.318 170.328 480.054 168.984C480.822 167.608 481.206 166.04 481.206 164.28C481.206 162.52 480.822 160.968 480.054 159.624C479.318 158.248 478.294 157.192 476.982 156.456C475.702 155.72 474.246 155.352 472.614 155.352C471.014 155.352 469.558 155.736 468.246 156.504C466.966 157.24 465.942 158.28 465.174 159.624C464.438 160.968 464.07 162.52 464.07 164.28C464.07 166.04 464.438 167.608 465.174 168.984C465.91 170.328 466.934 171.384 468.246 172.152C469.558 172.888 471.014 173.256 472.614 173.256ZM506.101 173.256C509.141 173.256 511.589 172.232 513.445 170.184L515.941 173.16C514.821 174.504 513.397 175.528 511.669 176.232C509.973 176.936 508.069 177.288 505.957 177.288C503.269 177.288 500.885 176.744 498.805 175.656C496.725 174.536 495.109 172.984 493.957 171C492.837 169.016 492.277 166.776 492.277 164.28C492.277 161.816 492.821 159.592 493.909 157.608C495.029 155.624 496.549 154.088 498.469 153C500.421 151.88 502.613 151.32 505.045 151.32C507.349 151.32 509.445 151.848 511.333 152.904C513.221 153.928 514.725 155.384 515.845 157.272C516.965 159.16 517.541 161.336 517.573 163.8L497.365 167.736C498.005 169.496 499.077 170.856 500.581 171.816C502.117 172.776 503.957 173.256 506.101 173.256ZM505.045 155.208C503.445 155.208 502.005 155.576 500.725 156.312C499.477 157.048 498.501 158.088 497.797 159.432C497.093 160.744 496.741 162.28 496.741 164.04V164.52L513.013 161.448C512.597 159.592 511.669 158.088 510.229 156.936C508.789 155.784 507.061 155.208 505.045 155.208ZM530.836 155.832C531.636 154.36 532.82 153.24 534.388 152.472C535.956 151.704 537.86 151.32 540.1 151.32V155.784C539.844 155.752 539.492 155.736 539.044 155.736C536.548 155.736 534.58 156.488 533.14 157.992C531.732 159.464 531.028 161.576 531.028 164.328V177H526.42V151.56H530.836V155.832Z" fill="#F8F1FF"/>
<path d="M111.919 2.26784C110.56 2.55412 108.556 3.77081 107.339 4.84436C100.898 10.9994 100.969 19.6594 107.41 26.5302C108.699 27.89 110.202 29.6792 110.774 30.4665C112.993 33.6872 111.275 43.4207 107.84 46.6414C106.909 47.5002 103.403 49.0032 99.9671 50.0052C96.5318 50.9356 90.5199 53.2974 86.6551 55.2298C82.7903 57.2338 79.2118 58.8083 78.7823 58.8083C76.4205 58.8083 72.842 56.0887 69.9792 52.0092C68.1899 49.5758 64.9693 45.9257 62.679 43.8502C53.518 35.4049 46.6473 34.7607 41.3511 41.8462C39.3471 44.5659 39.4903 49.6474 41.6374 54.0847C43.7129 58.4505 51.4425 66.6811 56.8103 70.3312C62.679 74.3391 63.18 76.2715 59.9594 83.2138C58.5995 86.1482 56.9534 90.4424 56.3093 92.8042C54.6632 98.7446 53.4465 99.6034 46.7188 99.6034C40.6354 99.6034 36.3412 101.178 31.3312 105.257C27.7527 108.12 26.4645 108.049 23.8879 104.971C21.2398 101.679 17.0888 99.6034 13.2955 99.6034C9.71702 99.6034 5.13653 102.681 3.2757 106.188C-0.660666 113.703 4.99338 122.649 13.6534 122.649C17.876 122.577 20.3094 121.432 23.6732 117.925C25.0331 116.494 26.7507 115.349 27.4664 115.349C28.1822 115.349 30.6871 116.78 33.0489 118.498C38.0588 122.22 42.4962 123.436 48.7944 122.721C54.0906 122.22 54.6632 122.649 56.7387 128.804C57.5975 131.452 59.3868 135.746 60.6751 138.394C64.6114 146.267 64.0389 148.271 56.1661 153.997C49.7248 158.72 44.357 164.374 41.9236 169.098C39.6334 173.607 39.5618 179.476 41.7089 182.195C43.5698 184.557 46.6473 186.203 49.2954 186.203C54.6632 186.203 65.3271 178.044 71.0527 169.671C74.2734 164.875 76.9931 162.585 79.2833 162.585C80.1422 162.585 84.1501 164.16 88.158 166.092C92.0944 168.096 97.7485 170.172 100.683 170.816C106.838 172.176 107.983 173.249 110.345 179.476C112.707 185.989 111.848 193.79 108.556 195.007C106.552 195.794 103.259 201.949 102.83 205.885C102.401 208.82 102.615 210.323 103.76 212.756C107.697 221.631 116.5 223.492 122.726 216.764C128.381 210.68 127.951 203.523 121.438 196.295C117.001 191.285 116.214 188.637 117.43 183.054C118.575 177.973 121.438 172.104 123.013 171.603C123.728 171.388 126.448 170.744 129.096 170.172C131.744 169.528 136.826 167.595 140.404 165.806C143.911 164.017 147.561 162.585 148.42 162.585C151.14 162.585 153.716 164.804 158.154 170.816C164.667 179.762 173.112 186.203 178.408 186.203C181.629 186.203 184.921 184.414 186.853 181.551C188.213 179.476 188.5 178.402 188.213 175.325C187.712 168.955 182.058 161.726 170.464 152.422C167.744 150.275 166.241 148.414 165.597 146.554C164.738 143.977 164.881 143.476 167.887 136.892C169.605 133.098 171.394 128.733 171.895 127.158C173.327 122.577 173.828 122.291 178.694 122.792C184.921 123.365 190.36 121.933 195.012 118.283C197.16 116.709 199.45 115.349 200.094 115.349C200.81 115.349 203.028 116.78 204.961 118.57C210.901 123.937 216.698 124.367 221.994 119.929C227.648 115.134 227.792 108.192 222.209 103.11C219.346 100.462 217.486 99.6034 214.336 99.6034C211.33 99.6034 206.535 102.252 203.458 105.615C201.167 108.049 199.521 107.977 196.372 105.257C191.72 101.178 187.068 99.5318 180.77 99.7465C174.329 99.8897 173.47 99.2456 171.609 92.8758C170.965 90.7287 169.462 86.8639 168.317 84.2158C167.1 81.5677 166.17 78.7765 166.17 78.0608C166.17 75.2695 168.46 72.3351 173.398 68.7566C178.694 64.8203 184.635 58.1642 186.925 53.369C187.784 51.7229 188.356 49.0032 188.356 47.0708C188.356 43.9217 188.07 43.2776 185.207 40.4864C182.416 37.6951 181.772 37.3373 178.766 37.3373C176.834 37.3373 174.257 37.9098 172.611 38.7687C168.746 40.7726 161.661 47.5002 157.796 52.868C152.786 59.8819 150.854 60.3113 143.41 56.0887C140.762 54.6573 134.75 52.1523 130.027 50.5778C121.868 47.8581 121.438 47.5718 119.864 44.8521C117.86 41.2736 116.571 35.2617 117.216 32.6136C117.502 31.5401 119.434 28.8204 121.51 26.5302C123.943 23.8821 125.589 21.3055 126.09 19.3731C128.667 9.85429 120.651 0.26387 111.919 2.26784ZM118.074 7.27776C120.579 8.85229 122.512 12.4308 122.512 15.6515C122.512 18.8721 119.721 23.7389 117.144 24.9556C113.852 26.5302 111.418 25.7429 109.128 22.1644C106.337 18.0133 106.265 11.8583 108.913 9.06702C112.134 5.63164 114.567 5.13065 118.074 7.27776ZM55.5936 43.4207C62.3927 47.2855 70.2655 58.0927 70.2655 63.6036C70.2655 68.1841 65.9713 70.1165 60.7466 67.8262C56.9534 66.1085 50.4405 60.4545 47.7208 56.5181C43.0688 49.5042 42.7109 43.7786 46.862 41.9893C49.5101 40.8442 51.6572 41.2021 55.5936 43.4207ZM181.414 41.703C183.346 42.5619 184.778 45.0669 184.778 47.6434C184.778 50.9356 181.128 56.5897 175.688 61.6712C169.891 67.0389 166.742 68.8282 162.877 68.8282C155.291 68.8282 157.223 57.7348 166.527 48.4307C170.679 44.208 175.975 40.9158 178.48 40.9158C179.124 40.9158 180.484 41.2736 181.414 41.703ZM127.164 58.8083C135.323 60.8839 144.699 66.3232 149.995 71.9773C158.512 81.1383 163.522 92.2317 164.81 104.9C165.597 112.558 164.81 119.428 162.09 127.516C159.728 134.744 157.152 138.967 151.211 145.838C145.271 152.709 142.766 154.713 136.253 157.933C128.667 161.655 123.299 162.872 113.923 162.872C104.476 162.943 98.5357 161.44 89.9473 157.003C83.005 153.424 73.7008 144.049 70.0508 136.963C65.1124 127.587 63.681 122.434 63.3232 112.844C62.679 95.9533 67.5458 83.0707 78.7108 72.1204C86.5835 64.4624 96.6033 59.1662 105.693 57.8779C111.991 57.0191 121.868 57.4485 127.164 58.8083ZM19.8084 106.045C24.6752 110.625 22.385 117.067 15.2995 118.426C7.64148 119.929 2.98942 110.625 8.92975 105.615C10.8621 104.041 11.6494 103.826 14.5838 104.041C16.874 104.327 18.6633 104.971 19.8084 106.045ZM51.6572 106.474C54.7347 109.552 55.0926 112.414 52.8023 115.206C49.367 119.214 43.355 119.858 37.2 116.709C31.9754 114.061 31.4028 110.625 35.4108 106.904C37.7726 104.685 40.4922 103.898 45.4306 104.184C48.9375 104.327 49.9395 104.685 51.6572 106.474ZM189.43 104.9C192.794 106.331 195.513 109.194 195.513 111.341C195.513 115.707 186.138 119.929 179.983 118.283C175.044 116.923 172.611 112.2 174.83 108.12C176.834 104.255 184.134 102.681 189.43 104.9ZM219.919 105.973C221.565 107.691 221.994 108.693 221.994 111.269C221.994 118.999 212.619 121.504 207.323 115.206C204.46 111.842 205.319 108.049 209.541 105.257C212.833 103.11 217.342 103.397 219.919 105.973ZM68.6909 155.142C72.2694 157.575 69.9792 165.806 63.8957 172.748C55.522 182.267 45.7884 184.772 44.0708 177.83C42.4962 171.603 53.6612 157.862 62.5359 155.07C66.5438 153.782 66.8301 153.782 68.6909 155.142ZM168.388 156.287C173.112 158.72 180.341 166.021 182.631 170.458C185.637 176.398 183.847 181.909 178.838 181.909C173.971 181.909 164.452 174.036 159.871 166.235C157.51 162.227 157.223 156.573 159.299 154.999C161.446 153.496 163.808 153.782 168.388 156.287ZM117.43 198.013C119.721 199.158 122.512 204.239 122.512 207.174C122.512 208.247 122.011 210.394 121.367 211.969C118.575 218.839 110.273 218.267 107.554 211.038C105.836 206.529 107.053 202.235 111.061 198.8C113.637 196.653 114.639 196.51 117.43 198.013Z" fill="#F8F1FF"/>
<path d="M84.9733 87.643C83.7683 88.3333 83.7683 88.8264 84.7724 89.8125C85.6761 90.7001 86.2786 90.7001 87.1823 89.8125C88.7888 88.2347 86.9814 86.4596 84.9733 87.643Z" fill="#F8F1FF"/>
<path d="M110.512 104.752C106.763 109.121 107.651 114.782 112.584 117.661C115.445 119.349 115.741 119.349 118.898 117.661C121.858 115.973 122.154 115.477 122.154 111.207C122.154 107.93 121.562 106.043 120.378 104.951C118.109 102.865 112.288 102.865 110.512 104.752Z" fill="#F8F1FF"/>
<path d="M145.333 126.393C145.534 128.345 146.24 129.126 147.651 129.126C149.062 129.126 149.767 128.345 149.969 126.393C150.271 124.149 149.969 123.758 147.651 123.758C145.333 123.758 145.031 124.149 145.333 126.393Z" fill="#F8F1FF"/>
<path d="M89.4105 135.829C89.4105 136.5 90.0259 137.648 90.8463 138.223C91.9744 139.085 92.3846 138.989 92.8974 137.744C93.2051 136.883 93.3076 135.829 92.8974 135.351C92.077 134.01 89.4105 134.298 89.4105 135.829Z" fill="#F8F1FF"/>
</g>
<defs>
<filter id="filter0_dd_4_19" x="0" y="-3.8147e-06" width="548.1" height="228.816" filterUnits="userSpaceOnUse" color-interpolation-filters="sRGB">
<feFlood flood-opacity="0" result="BackgroundImageFix"/>
<feColorMatrix in="SourceAlpha" type="matrix" values="0 0 0 0 0 0 0 0 0 0 0 0 0 0 0 0 0 0 127 0" result="hardAlpha"/>
<feOffset dx="2" dy="2"/>
<feGaussianBlur stdDeviation="2"/>
<feComposite in2="hardAlpha" operator="out"/>
<feColorMatrix type="matrix" values="0 0 0 0 0.0954653 0 0 0 0 0.272291 0 0 0 0 0.388333 0 0 0 1 0"/>
<feBlend mode="normal" in2="BackgroundImageFix" result="effect1_dropShadow_4_19"/>
<feColorMatrix in="SourceAlpha" type="matrix" values="0 0 0 0 0 0 0 0 0 0 0 0 0 0 0 0 0 0 127 0" result="hardAlpha"/>
<feOffset dx="4" dy="4"/>
<feGaussianBlur stdDeviation="2"/>
<feComposite in2="hardAlpha" operator="out"/>
<feColorMatrix type="matrix" values="0 0 0 0 0.0954653 0 0 0 0 0.272291 0 0 0 0 0.388333 0 0 0 1 0"/>
<feBlend mode="normal" in2="effect1_dropShadow_4_19" result="effect2_dropShadow_4_19"/>
<feBlend mode="normal" in="SourceGraphic" in2="effect2_dropShadow_4_19" result="shape"/>
</filter>
</defs>
</svg>
