<svg xmlns="http://www.w3.org/2000/svg" data-name="Layer 1" viewBox="0 0 100 100" x="0px" y="0px"><title>•SET15-v2</title><path d="M93.72,67.18a1.74,1.74,0,0,0-.78-1.07L70.8,52.76c.23-.08.45-.15.67-.24L74,51.43a3,3,0,0,0,.54-5.28l-13-9,.67,0a10,10,0,0,0,6.54-2.45l1.77-1.55A3,3,0,0,0,69.45,28L57.36,24.17,59,22.82a10.4,10.4,0,0,0,3.57-6.08L63,14.21a3.3,3.3,0,0,0-4.9-3.47l-18.87,11a2.27,2.27,0,0,0-.25.18c-.26.12-.52.23-.77.36l-15,7.87A25.55,25.55,0,0,1,11.42,33H7.94a1.7,1.7,0,1,0,0,3.4h3.48A29,29,0,0,0,24.8,33.14l15-7.88a9.94,9.94,0,0,1,7.56-.67L67.8,31l-1.27,1.11a6.49,6.49,0,0,1-4.23,1.61l-6-.24-.68-.47a19.26,19.26,0,0,0-11-3.45H40.12a1.7,1.7,0,1,0,0,3.4h4.51a16,16,0,0,1,9.09,2.84L72.09,48.56l-2,.83a5.84,5.84,0,0,1-5-.19l-9.9-5.12a21.06,21.06,0,0,0-17.16-1l-6.39,1.6-.19.07a6.35,6.35,0,0,0-4.08,6.43c.22,2.91,2.19,4.4,4.11,5.48l12.1,6.54c2.6,1.53,4.23,2.6,5,4.62l.66,1.82a.63.63,0,0,1-.12.65.64.64,0,0,1-.59.21L27.57,64c-.94-.28-1.86-.6-2.76-.91a22.75,22.75,0,0,0-7.34-1.69H7.94a1.7,1.7,0,1,0,0,3.4h9.53a20.52,20.52,0,0,1,6.22,1.5c.95.33,1.92.66,2.89,1l21,6.58.12,0a4.22,4.22,0,0,0,.93.11,4,4,0,0,0,4-3.24L79.86,87a1.61,1.61,0,0,0,.87.24,1.69,1.69,0,0,0,1.44-.79l11.33-18A1.71,1.71,0,0,0,93.72,67.18ZM47.19,21l12.46-7.25-.44,2.33a7,7,0,0,1-2.41,4.1L53.51,23l-5.1-1.61C48,21.22,47.6,21.12,47.19,21ZM30.81,50.94a3,3,0,0,1,1.82-3l5.68-1.42L33.64,54l-.47-.26C31.29,52.63,30.88,51.88,30.81,50.94ZM80.18,83.25,51.52,66.06c-1.32-2.9-3.88-4.44-6.22-5.81l-8.66-4.68L43.11,45.3a17.66,17.66,0,0,1,10.57,1.8l8.25,4.26.07.06L89.7,68.13Z"/><path d="M74.17,75.68a6.6,6.6,0,1,0-6.59-6.6A6.61,6.61,0,0,0,74.17,75.68Zm0-9.79A3.2,3.2,0,1,1,71,69.08,3.2,3.2,0,0,1,74.17,65.89Z"/></svg>