<svg width="29" height="27" viewBox="0 0 29 27" fill="none" xmlns="http://www.w3.org/2000/svg">
<path d="M7.64975 25.4812C7.66439 25.4906 7.67926 25.4996 7.69437 25.5083C8.53143 25.9866 9.44896 26.0861 10.3376 25.676C10.3562 25.6674 10.3745 25.6582 10.3926 25.6485C11.1674 25.2313 11.7614 24.5479 12.2103 23.6999L12.2104 23.6999L12.2159 23.6892L14.4831 19.2784L16.7058 23.6826L16.7147 23.6999C17.1663 24.5529 17.7753 25.2371 18.5875 25.612C19.4813 26.0245 20.4112 25.9159 21.2691 25.4584C21.293 25.4456 21.3164 25.4319 21.3393 25.4172C22.1096 24.922 22.6674 24.2147 22.7524 23.2825C22.8757 22.3986 22.5498 21.5413 22.0185 20.7629L19.4749 16.7231L24.213 16.8712C25.1586 16.9193 26.0489 16.7518 26.7627 16.2328L26.1745 15.424L26.7627 16.2327C27.5553 15.6563 27.8785 14.7801 27.8785 13.824C27.8785 12.9116 27.5274 12.1106 26.7856 11.5601C26.0584 10.9768 25.1438 10.8111 24.1842 10.906L19.4263 11.0919L22.0173 7.01492C22.5616 6.21773 22.8719 5.34473 22.7532 4.43745C22.6731 3.48004 22.1313 2.7535 21.3172 2.28074C20.4515 1.73323 19.488 1.64925 18.5593 2.11359C18.5503 2.1181 18.5413 2.12275 18.5324 2.12754C17.7576 2.54476 17.1637 3.22812 16.7147 4.07613L16.7058 4.09346L14.4831 8.49761L12.2235 4.10163C11.8088 3.22776 11.2031 2.53642 10.3789 2.12022C9.95954 1.89723 9.49726 1.78146 9.00981 1.81896C8.54601 1.85463 8.12195 2.02413 7.74449 2.27376C6.92495 2.70388 6.37442 3.40159 6.24056 4.33859C6.10922 5.258 6.42099 6.16172 6.96344 7.00184L9.53802 11.0909L4.80479 10.906C3.82969 10.8096 2.91113 10.9842 2.1563 11.5477C1.40297 12.0985 1.04651 12.9047 1.04651 13.824C1.04651 14.7801 1.36973 15.6563 2.16234 16.2327C2.17333 16.2407 2.1845 16.2485 2.19581 16.2561C2.9338 16.7481 3.82282 16.9197 4.77598 16.8712L9.44881 16.7252L6.90652 20.7629C6.35599 21.5698 6.04526 22.4543 6.17656 23.3734L6.1765 23.3734L6.17814 23.3841C6.31808 24.2937 6.88002 24.9864 7.64975 25.4812Z" fill="#FFDC8B" stroke="#011F33" stroke-width="2" stroke-linejoin="round"/>
</svg>
