
<svg xmlns="http://www.w3.org/2000/svg" version="1.1" xmlns:xlink="http://www.w3.org/1999/xlink" preserveAspectRatio="none" x="0px" y="0px" width="550px" height="550px" viewBox="0 0 550 550">
<defs>
<path id="Layer1_0_MEMBER_0_1_STROKES" stroke="#000000" stroke-width="37" stroke-linejoin="round" stroke-linecap="round" fill="none" d="
M 274.97177886962885 24.981858825683595
Q 325.8292617797851 24.981858825683595 372.29823608398436 44.62761230468751 417.1676605224609 63.617140197753905 451.78356018066404 98.19202575683593 486.358445739746 132.80792541503905 505.34797363281245 177.6773498535156 524.9937271118164 224.10531005859374 524.9937271118164 274.96279296875 524.9937271118164 325.8202758789063 505.34797363281245 372.2892501831055 486.358445739746 417.15867462158207 451.78356018066404 451.77457427978516 417.1676605224609 486.34945983886723 372.29823608398436 505.3389877319337 325.8292617797851 524.9847412109375 274.97177886962885 524.9847412109375 224.11429595947263 524.9847412109375 177.68633575439455 505.3389877319337 132.816911315918 486.34945983886723 98.20101165771484 451.77457427978516 63.62612609863282 417.15867462158207 44.63659820556641 372.2892501831055 24.990844726562507 325.8202758789063 24.990844726562507 274.96279296875 24.990844726562507 224.10531005859374 44.63659820556641 177.6773498535156 63.62612609863282 132.80792541503905 98.20101165771484 98.19202575683593 132.816911315918 63.617140197753905 177.68633575439455 44.62761230468751 224.11429595947263 24.981858825683595 274.97177886962885 24.981858825683595 Z"/>

<path id="Layer1_0_MEMBER_1_MEMBER_0_1_STROKES" stroke="#000000" stroke-width="37" stroke-linejoin="round" stroke-linecap="round" fill="none" d="
M 181.2545623779297 181.24557647705078
L 368.7300094604492 368.7210235595703"/>

<path id="Layer1_0_MEMBER_1_MEMBER_1_1_STROKES" stroke="#000000" stroke-width="38.04" stroke-linejoin="round" stroke-linecap="round" fill="none" d="
M 368.7300094604492 181.24557647705078
L 181.2545623779297 368.7210235595703"/>
</defs>

<g transform="matrix( 0.820281982421875, 0, 0, 0.820281982421875, -53.1,-53.15) ">
<use xlink:href="#Layer1_0_MEMBER_0_1_STROKES" transform="matrix( 1.219085693359375, 0, 0, 1.219085693359375, 64.7,64.75) "/>
</g>

<g transform="matrix( 0.820281982421875, 0, 0, 0.820281982421875, -53.1,-53.15) ">
<use xlink:href="#Layer1_0_MEMBER_1_MEMBER_0_1_STROKES" transform="matrix( 1.219085693359375, 0, 0, 1.219085693359375, 64.7,64.75) "/>
</g>

<g transform="matrix( 0.820281982421875, 0, 0, 0.820281982421875, -53.1,-53.15) ">
<use xlink:href="#Layer1_0_MEMBER_1_MEMBER_1_1_STROKES" transform="matrix( 1.219085693359375, 0, 0, 1.219085693359375, 64.7,64.75) "/>
</g>
</svg>
