<?xml version="1.0" standalone="no"?>
<!DOCTYPE svg PUBLIC "-//W3C//DTD SVG 20010904//EN"
 "http://www.w3.org/TR/2001/REC-SVG-20010904/DTD/svg10.dtd">
<svg version="1.0" xmlns="http://www.w3.org/2000/svg"
 width="512.000000pt" height="512.000000pt" viewBox="0 0 512.000000 512.000000"
 preserveAspectRatio="xMidYMid meet">

<g transform="translate(0.000000,512.000000) scale(0.100000,-0.100000)"
fill="#000000" stroke="none">
<path d="M1710 5107 c-14 -7 -33 -28 -42 -47 -16 -31 -18 -69 -18 -327 0 -174
4 -313 11 -345 29 -139 156 -237 307 -238 l32 0 0 -104 0 -103 -74 -12 c-191
-31 -359 -177 -416 -360 -20 -62 -20 -97 -20 -1601 0 -1506 0 -1539 20 -1602
49 -158 176 -287 341 -344 51 -18 92 -19 709 -19 617 0 658 1 709 19 165 57
292 186 341 344 20 63 20 96 20 1602 0 1504 0 1539 -20 1601 -57 183 -225 329
-416 360 l-74 12 0 103 0 104 30 0 c103 0 210 52 262 128 51 75 58 124 58 452
0 261 -2 299 -18 330 -9 19 -28 40 -42 47 -36 18 -1664 18 -1700 0z m1550
-282 l0 -95 -700 0 -700 0 0 95 0 95 700 0 700 0 0 -95z m0 -355 c0 -51 -4
-65 -25 -85 -22 -23 -32 -25 -120 -25 -105 0 -152 -14 -179 -51 -14 -20 -16
-58 -16 -264 0 -309 -3 -304 180 -315 82 -5 115 -11 153 -30 66 -33 130 -104
156 -173 21 -57 21 -63 21 -894 l0 -836 -122 6 c-195 10 -369 62 -495 148 -71
49 -155 132 -248 244 -147 179 -290 281 -500 360 -70 27 -247 70 -322 80 l-53
7 0 414 c0 398 1 415 21 471 26 69 90 140 156 173 38 19 71 25 153 30 183 11
180 6 180 315 0 206 -2 244 -16 264 -27 37 -74 51 -179 51 -88 0 -98 2 -120
25 -21 20 -25 34 -25 85 l0 60 700 0 700 0 0 -60z m-1330 -2086 c181 -54 338
-152 438 -274 95 -116 213 -240 271 -284 189 -144 380 -207 704 -231 l87 -7 0
-555 c0 -589 -1 -601 -48 -677 -50 -81 -119 -127 -217 -145 -80 -15 -1130 -15
-1210 0 -98 18 -167 64 -217 145 -49 79 -48 62 -48 1101 l0 981 78 -14 c42 -8
115 -26 162 -40z"/>
<path d="M2352 520 c-43 -26 -57 -64 -43 -111 14 -46 53 -72 108 -72 74 0 117
38 115 102 -1 44 -19 71 -57 87 -47 19 -84 18 -123 -6z"/>
<path d="M2690 529 c-38 -15 -60 -49 -60 -95 0 -32 6 -46 31 -70 l30 -29 247
0 c223 0 250 2 274 18 63 43 54 143 -16 172 -28 12 -84 15 -258 14 -123 0
-234 -5 -248 -10z"/>
</g>
</svg>
